<!--?xml version="1.0" encoding="us-ascii" standalone="no"?--><svg xmlns="http://www.w3.org/2000/svg" xmlns:xlink="http://www.w3.org/1999/xlink" contentstyletype="text/css" height="761px" preserveAspectRatio="none" style="width:413px;height:761px;background:#FFFFFF;" version="1.1" viewBox="0 0 413 761" width="413px" zoomAndPan="magnify"><defs></defs><g><line style="stroke:#181818;stroke-width:0.5;stroke-dasharray:5.0,5.0;" x1="27" x2="27" y1="36.2969" y2="726.3516"></line><line style="stroke:#181818;stroke-width:0.5;stroke-dasharray:5.0,5.0;" x1="175" x2="175" y1="36.2969" y2="726.3516"></line><line style="stroke:#181818;stroke-width:0.5;stroke-dasharray:5.0,5.0;" x1="366.5" x2="366.5" y1="36.2969" y2="726.3516"></line><rect fill="#E2E2F0" height="30.2969" rx="2.5" ry="2.5" style="stroke:#181818;stroke-width:0.5;" width="45" x="5" y="5"></rect><text fill="#000000" font-family="sans-serif" font-size="14" lengthAdjust="spacing" textLength="31" x="12" y="24.9951">User</text><rect fill="#E2E2F0" height="30.2969" rx="2.5" ry="2.5" style="stroke:#181818;stroke-width:0.5;" width="45" x="5" y="725.3516"></rect><text fill="#000000" font-family="sans-serif" font-size="14" lengthAdjust="spacing" textLength="31" x="12" y="745.3467">User</text><rect fill="#E2E2F0" height="30.2969" rx="2.5" ry="2.5" style="stroke:#181818;stroke-width:0.5;" width="97" x="127" y="5"></rect><text fill="#000000" font-family="sans-serif" font-size="14" lengthAdjust="spacing" textLength="83" x="134" y="24.9951">Application</text><rect fill="#E2E2F0" height="30.2969" rx="2.5" ry="2.5" style="stroke:#181818;stroke-width:0.5;" width="97" x="127" y="725.3516"></rect><text fill="#000000" font-family="sans-serif" font-size="14" lengthAdjust="spacing" textLength="83" x="134" y="745.3467">Application</text><rect fill="#E2E2F0" height="30.2969" rx="2.5" ry="2.5" style="stroke:#181818;stroke-width:0.5;" width="82" x="325.5" y="5"></rect><text fill="#000000" font-family="sans-serif" font-size="14" lengthAdjust="spacing" textLength="68" x="332.5" y="24.9951">Database</text><rect fill="#E2E2F0" height="30.2969" rx="2.5" ry="2.5" style="stroke:#181818;stroke-width:0.5;" width="82" x="325.5" y="725.3516"></rect><text fill="#000000" font-family="sans-serif" font-size="14" lengthAdjust="spacing" textLength="68" x="332.5" y="745.3467">Database</text><polygon fill="#181818" points="163.5,63.4297,173.5,67.4297,163.5,71.4297,167.5,67.4297" style="stroke:#181818;stroke-width:1.0;"></polygon><line style="stroke:#181818;stroke-width:1.0;" x1="27.5" x2="169.5" y1="67.4297" y2="67.4297"></line><text fill="#000000" font-family="sans-serif" font-size="13" lengthAdjust="spacing" textLength="53" x="34.5" y="62.3638">Register</text><polygon fill="#181818" points="354.5,92.5625,364.5,96.5625,354.5,100.5625,358.5,96.5625" style="stroke:#181818;stroke-width:1.0;"></polygon><line style="stroke:#181818;stroke-width:1.0;" x1="175.5" x2="360.5" y1="96.5625" y2="96.5625"></line><text fill="#000000" font-family="sans-serif" font-size="13" lengthAdjust="spacing" textLength="67" x="182.5" y="91.4966">Store User</text><polygon fill="#181818" points="163.5,121.6953,173.5,125.6953,163.5,129.6953,167.5,125.6953" style="stroke:#181818;stroke-width:1.0;"></polygon><line style="stroke:#181818;stroke-width:1.0;" x1="27.5" x2="169.5" y1="125.6953" y2="125.6953"></line><text fill="#000000" font-family="sans-serif" font-size="13" lengthAdjust="spacing" textLength="34" x="34.5" y="120.6294">Login</text><polygon fill="#181818" points="354.5,150.8281,364.5,154.8281,354.5,158.8281,358.5,154.8281" style="stroke:#181818;stroke-width:1.0;"></polygon><line style="stroke:#181818;stroke-width:1.0;" x1="175.5" x2="360.5" y1="154.8281" y2="154.8281"></line><text fill="#000000" font-family="sans-serif" font-size="13" lengthAdjust="spacing" textLength="71" x="182.5" y="149.7622">Verify User</text><polygon fill="#181818" points="186.5,179.9609,176.5,183.9609,186.5,187.9609,182.5,183.9609" style="stroke:#181818;stroke-width:1.0;"></polygon><line style="stroke:#181818;stroke-width:1.0;" x1="180.5" x2="365.5" y1="183.9609" y2="183.9609"></line><text fill="#000000" font-family="sans-serif" font-size="13" lengthAdjust="spacing" textLength="161" x="192.5" y="178.895">Authenticate &amp; Authorize</text><polygon fill="#181818" points="354.5,209.0938,364.5,213.0938,354.5,217.0938,358.5,213.0938" style="stroke:#181818;stroke-width:1.0;"></polygon><line style="stroke:#181818;stroke-width:1.0;" x1="175.5" x2="360.5" y1="213.0938" y2="213.0938"></line><text fill="#000000" font-family="sans-serif" font-size="13" lengthAdjust="spacing" textLength="45" x="182.5" y="208.0278">Access</text><polygon fill="#181818" points="186.5,238.2266,176.5,242.2266,186.5,246.2266,182.5,242.2266" style="stroke:#181818;stroke-width:1.0;"></polygon><line style="stroke:#181818;stroke-width:1.0;" x1="180.5" x2="365.5" y1="242.2266" y2="242.2266"></line><text fill="#000000" font-family="sans-serif" font-size="13" lengthAdjust="spacing" textLength="70" x="192.5" y="237.1606">Dashboard</text><polygon fill="#181818" points="163.5,267.3594,173.5,271.3594,163.5,275.3594,167.5,271.3594" style="stroke:#181818;stroke-width:1.0;"></polygon><line style="stroke:#181818;stroke-width:1.0;" x1="27.5" x2="169.5" y1="271.3594" y2="271.3594"></line><text fill="#000000" font-family="sans-serif" font-size="13" lengthAdjust="spacing" textLength="58" x="34.5" y="266.2935">Add Item</text><polygon fill="#181818" points="354.5,296.4922,364.5,300.4922,354.5,304.4922,358.5,300.4922" style="stroke:#181818;stroke-width:1.0;"></polygon><line style="stroke:#181818;stroke-width:1.0;" x1="175.5" x2="360.5" y1="300.4922" y2="300.4922"></line><text fill="#000000" font-family="sans-serif" font-size="13" lengthAdjust="spacing" textLength="67" x="182.5" y="295.4263">Store Item</text><polygon fill="#181818" points="163.5,325.625,173.5,329.625,163.5,333.625,167.5,329.625" style="stroke:#181818;stroke-width:1.0;"></polygon><line style="stroke:#181818;stroke-width:1.0;" x1="27.5" x2="169.5" y1="329.625" y2="329.625"></line><text fill="#000000" font-family="sans-serif" font-size="13" lengthAdjust="spacing" textLength="57" x="34.5" y="324.5591">Edit Item</text><polygon fill="#181818" points="354.5,354.7578,364.5,358.7578,354.5,362.7578,358.5,358.7578" style="stroke:#181818;stroke-width:1.0;"></polygon><line style="stroke:#181818;stroke-width:1.0;" x1="175.5" x2="360.5" y1="358.7578" y2="358.7578"></line><text fill="#000000" font-family="sans-serif" font-size="13" lengthAdjust="spacing" textLength="79" x="182.5" y="353.6919">Update Item</text><polygon fill="#181818" points="163.5,383.8906,173.5,387.8906,163.5,391.8906,167.5,387.8906" style="stroke:#181818;stroke-width:1.0;"></polygon><line style="stroke:#181818;stroke-width:1.0;" x1="27.5" x2="169.5" y1="387.8906" y2="387.8906"></line><text fill="#000000" font-family="sans-serif" font-size="13" lengthAdjust="spacing" textLength="75" x="34.5" y="382.8247">Delete Item</text><polygon fill="#181818" points="354.5,413.0234,364.5,417.0234,354.5,421.0234,358.5,417.0234" style="stroke:#181818;stroke-width:1.0;"></polygon><line style="stroke:#181818;stroke-width:1.0;" x1="175.5" x2="360.5" y1="417.0234" y2="417.0234"></line><text fill="#000000" font-family="sans-serif" font-size="13" lengthAdjust="spacing" textLength="87" x="182.5" y="411.9575">Remove Item</text><polygon fill="#181818" points="163.5,442.1563,173.5,446.1563,163.5,450.1563,167.5,446.1563" style="stroke:#181818;stroke-width:1.0;"></polygon><line style="stroke:#181818;stroke-width:1.0;" x1="27.5" x2="169.5" y1="446.1563" y2="446.1563"></line><text fill="#000000" font-family="sans-serif" font-size="13" lengthAdjust="spacing" textLength="44" x="34.5" y="441.0903">Search</text><polygon fill="#181818" points="354.5,471.2891,364.5,475.2891,354.5,479.2891,358.5,475.2891" style="stroke:#181818;stroke-width:1.0;"></polygon><line style="stroke:#181818;stroke-width:1.0;" x1="175.5" x2="360.5" y1="475.2891" y2="475.2891"></line><text fill="#000000" font-family="sans-serif" font-size="13" lengthAdjust="spacing" textLength="54" x="182.5" y="470.2231">Retrieve</text><polygon fill="#181818" points="186.5,500.4219,176.5,504.4219,186.5,508.4219,182.5,504.4219" style="stroke:#181818;stroke-width:1.0;"></polygon><line style="stroke:#181818;stroke-width:1.0;" x1="180.5" x2="365.5" y1="504.4219" y2="504.4219"></line><text fill="#000000" font-family="sans-serif" font-size="13" lengthAdjust="spacing" textLength="47" x="192.5" y="499.356">Display</text><polygon fill="#181818" points="163.5,529.5547,173.5,533.5547,163.5,537.5547,167.5,533.5547" style="stroke:#181818;stroke-width:1.0;"></polygon><line style="stroke:#181818;stroke-width:1.0;" x1="27.5" x2="169.5" y1="533.5547" y2="533.5547"></line><text fill="#000000" font-family="sans-serif" font-size="13" lengthAdjust="spacing" textLength="124" x="34.5" y="528.4888">Set Low Stock Alert</text><polygon fill="#181818" points="354.5,558.6875,364.5,562.6875,354.5,566.6875,358.5,562.6875" style="stroke:#181818;stroke-width:1.0;"></polygon><line style="stroke:#181818;stroke-width:1.0;" x1="175.5" x2="360.5" y1="562.6875" y2="562.6875"></line><text fill="#000000" font-family="sans-serif" font-size="13" lengthAdjust="spacing" textLength="68" x="182.5" y="557.6216">Store Alert</text><polygon fill="#181818" points="163.5,587.8203,173.5,591.8203,163.5,595.8203,167.5,591.8203" style="stroke:#181818;stroke-width:1.0;"></polygon><line style="stroke:#181818;stroke-width:1.0;" x1="27.5" x2="169.5" y1="591.8203" y2="591.8203"></line><text fill="#000000" font-family="sans-serif" font-size="13" lengthAdjust="spacing" textLength="121" x="34.5" y="586.7544">Create Sales Order</text><polygon fill="#181818" points="354.5,616.9531,364.5,620.9531,354.5,624.9531,358.5,620.9531" style="stroke:#181818;stroke-width:1.0;"></polygon><line style="stroke:#181818;stroke-width:1.0;" x1="175.5" x2="360.5" y1="620.9531" y2="620.9531"></line><text fill="#000000" font-family="sans-serif" font-size="13" lengthAdjust="spacing" textLength="117" x="182.5" y="615.8872">Deduct Sold Items</text><polygon fill="#181818" points="163.5,646.0859,173.5,650.0859,163.5,654.0859,167.5,650.0859" style="stroke:#181818;stroke-width:1.0;"></polygon><line style="stroke:#181818;stroke-width:1.0;" x1="27.5" x2="169.5" y1="650.0859" y2="650.0859"></line><text fill="#000000" font-family="sans-serif" font-size="13" lengthAdjust="spacing" textLength="116" x="34.5" y="645.02">View Sales Orders</text><polygon fill="#181818" points="354.5,675.2188,364.5,679.2188,354.5,683.2188,358.5,679.2188" style="stroke:#181818;stroke-width:1.0;"></polygon><line style="stroke:#181818;stroke-width:1.0;" x1="175.5" x2="360.5" y1="679.2188" y2="679.2188"></line><text fill="#000000" font-family="sans-serif" font-size="13" lengthAdjust="spacing" textLength="167" x="182.5" y="674.1528">Retrieve Sales Order Data</text><polygon fill="#181818" points="186.5,704.3516,176.5,708.3516,186.5,712.3516,182.5,708.3516" style="stroke:#181818;stroke-width:1.0;"></polygon><line style="stroke:#181818;stroke-width:1.0;" x1="180.5" x2="365.5" y1="708.3516" y2="708.3516"></line><text fill="#000000" font-family="sans-serif" font-size="13" lengthAdjust="spacing" textLength="125" x="192.5" y="703.2856">Display Sales Order</text><!--SRC=[XPB1QiCm44Jl-GgTUkiFv50GSG-5GY76kIlID1PLBBExIKY_lf5Dm539Ekvgvg6TtOv1wlLDwN4CtXhnSTYgFKwU1RHPT9EeCMAEXh5LhKI2wXxcJPSZVCQJ7yhs0yX_tsV_i_kFeI_IOv1KGxrCPIJ_Yp9MMmlcCh4nt1-Z8PV_j7PEVGZEjR4dJPRmxhnK4DteqZnbHeE0fw18sUCShskK5ePilmOGyhXY9IpFOp3t4buUExwbGEoFqW4ajTHcKPQs8wHCMXF0welSskKrS1ShgerXNXRdaGUFsnB8zIYMykcvcitIyGS0]--></g></svg>